<svg xmlns="http://www.w3.org/2000/svg" viewBox="0 0 900 1200" role="img" aria-labelledby="title desc">
  <title id="title">Finlay Goes to Gaul placeholder cover</title>
  <desc id="desc">A cheerful cartoon-style placeholder cover for Finlay's first book.</desc>
  <defs>
    <linearGradient id="sky" x1="0" y1="0" x2="0" y2="1">
      <stop offset="0" stop-color="#7dd3fc"/>
      <stop offset="1" stop-color="#fef3c7"/>
    </linearGradient>
    <filter id="shadow" x="-20%" y="-20%" width="140%" height="140%">
      <feDropShadow dx="0" dy="16" stdDeviation="12" flood-color="#7c2d12" flood-opacity="0.25"/>
    </filter>
  </defs>
  <rect width="900" height="1200" rx="44" fill="url(#sky)"/>
  <circle cx="730" cy="145" r="86" fill="#facc15"/>
  <path d="M0 820 C180 720 300 780 450 705 C630 616 775 710 900 635 L900 1200 L0 1200 Z" fill="#86efac"/>
  <path d="M0 965 C190 875 330 940 500 855 C675 770 780 840 900 790 L900 1200 L0 1200 Z" fill="#22c55e"/>
  <g filter="url(#shadow)">
    <rect x="105" y="130" width="690" height="890" rx="36" fill="#fff7ed" stroke="#7c2d12" stroke-width="14"/>
    <rect x="145" y="170" width="610" height="810" rx="28" fill="#fefce8" stroke="#fb923c" stroke-width="6" stroke-dasharray="18 14"/>
  </g>
  <text x="450" y="285" text-anchor="middle" font-family="Comic Sans MS, Chalkboard SE, Arial Rounded MT Bold, sans-serif" font-size="78" font-weight="800" fill="#2563eb">Finlay Goes</text>
  <text x="450" y="375" text-anchor="middle" font-family="Comic Sans MS, Chalkboard SE, Arial Rounded MT Bold, sans-serif" font-size="96" font-weight="900" fill="#dc2626">to Gaul</text>
  <g transform="translate(450 620)">
    <ellipse cx="0" cy="205" rx="250" ry="44" fill="#000" opacity="0.12"/>
    <circle cx="-95" cy="-30" r="95" fill="#fbbf24" stroke="#92400e" stroke-width="9"/>
    <path d="M-170 -80 Q-95 -185 -20 -80" fill="none" stroke="#92400e" stroke-width="15" stroke-linecap="round"/>
    <circle cx="-128" cy="-35" r="10" fill="#111827"/>
    <circle cx="-62" cy="-35" r="10" fill="#111827"/>
    <path d="M-132 10 Q-95 42 -58 10" fill="none" stroke="#111827" stroke-width="8" stroke-linecap="round"/>
    <rect x="-175" y="70" width="160" height="210" rx="34" fill="#60a5fa" stroke="#1d4ed8" stroke-width="9"/>
    <path d="M-15 120 C70 75 142 82 198 136 C236 173 215 236 158 238 C92 240 47 190 -15 182 Z" fill="#ef4444" stroke="#991b1b" stroke-width="9"/>
    <path d="M34 135 L188 200" stroke="#fee2e2" stroke-width="13" stroke-linecap="round"/>
    <path d="M24 170 L158 225" stroke="#fee2e2" stroke-width="10" stroke-linecap="round"/>
    <path d="M-175 130 L-250 190" stroke="#92400e" stroke-width="18" stroke-linecap="round"/>
    <path d="M-20 130 L62 180" stroke="#92400e" stroke-width="18" stroke-linecap="round"/>
    <path d="M-140 280 L-175 370" stroke="#92400e" stroke-width="20" stroke-linecap="round"/>
    <path d="M-60 280 L-28 370" stroke="#92400e" stroke-width="20" stroke-linecap="round"/>
  </g>
  <text x="450" y="1110" text-anchor="middle" font-family="Comic Sans MS, Chalkboard SE, Arial Rounded MT Bold, sans-serif" font-size="40" font-weight="700" fill="#7c2d12">A brilliant adventure by Finlay</text>
</svg>
